<?xml version="1.0" encoding="UTF-8" standalone="no"?>
<!-- Created with Inkscape (http://www.inkscape.org/) -->

<svg
   width="29in"
   height="19in"
   viewBox="0 0 736.60001 482.6"
   version="1.1"
   id="svg1"
   inkscape:version="1.4.3 (0d15f75, 2025-12-25)"
   sodipodi:docname="inkspace_.svg"
   xmlns:inkscape="http://www.inkscape.org/namespaces/inkscape"
   xmlns:sodipodi="http://sodipodi.sourceforge.net/DTD/sodipodi-0.dtd"
   xmlns="http://www.w3.org/2000/svg"
   xmlns:svg="http://www.w3.org/2000/svg">
  <sodipodi:namedview
     id="namedview1"
     pagecolor="#ffffff"
     bordercolor="#000000"
     borderopacity="0.25"
     inkscape:showpageshadow="2"
     inkscape:pageopacity="0.0"
     inkscape:pagecheckerboard="0"
     inkscape:deskcolor="#d1d1d1"
     inkscape:document-units="in"
     showgrid="true"
     inkscape:zoom="0.25530164"
     inkscape:cx="1721.493"
     inkscape:cy="524.86932"
     inkscape:window-width="1472"
     inkscape:window-height="845"
     inkscape:window-x="0"
     inkscape:window-y="30"
     inkscape:window-maximized="0"
     inkscape:current-layer="layer1">
    <inkscape:grid
       id="grid1"
       units="in"
       originx="0"
       originy="0"
       spacingx="368.3"
       spacingy="241.3"
       empcolor="#0099e5"
       empopacity="0.30196078"
       color="#0099e5"
       opacity="0.14901961"
       empspacing="4"
       enabled="true"
       visible="true" />
  </sodipodi:namedview>
  <defs
     id="defs1">
    <inkscape:path-effect
       effect="bspline"
       id="path-effect9"
       is_visible="true"
       lpeversion="1.3"
       weight="33.333333"
       steps="2"
       helper_size="0"
       apply_no_weight="true"
       apply_with_weight="true"
       only_selected="false"
       uniform="false" />
    <inkscape:path-effect
       effect="bspline"
       id="path-effect8"
       is_visible="true"
       lpeversion="1.3"
       weight="33.333333"
       steps="2"
       helper_size="0"
       apply_no_weight="true"
       apply_with_weight="true"
       only_selected="false"
       uniform="false" />
    <inkscape:path-effect
       effect="bspline"
       id="path-effect7"
       is_visible="true"
       lpeversion="1.3"
       weight="33.333333"
       steps="2"
       helper_size="0"
       apply_no_weight="true"
       apply_with_weight="true"
       only_selected="false"
       uniform="false" />
    <marker
       markerWidth="308.43488"
       markerHeight="331.14307"
       refX="154.21744"
       refY="165.57153"
       orient="auto"
       id="marker10">
      <rect
         style="fill:none;fill-opacity:1;stroke:#000000;stroke-width:13.2283;stroke-dasharray:none;stroke-opacity:1"
         id="rect10"
         width="295.20651"
         height="317.91473"
         x="6.6141734"
         y="6.6141734" />
    </marker>
  </defs>
  <g
     inkscape:label="Layer 1"
     inkscape:groupmode="layer"
     id="layer1">
    <path
       style="fill:none;stroke:#000000;stroke-width:4.99999;stroke-dasharray:none;stroke-opacity:1"
       d="m 703.68559,453.92383 c -1.38182,-0.34544 -3.79998,-2.41815 -4.14542,-1.03634 -0.34546,1.38181 5.46788,1.56533 4.14542,1.03634 -3.04284,-1.21713 -6.28436,-1.89192 -9.3272,-3.10906 -0.9072,-0.36288 -1.14578,-1.76371 -2.07272,-2.07269 -1.81084,-0.60362 -3.37095,-0.43276 -5.18176,-1.03638 -2.32304,-0.77433 -4.71061,-3.29745 -7.2545,-4.14541 -6.69552,-2.23184 -13.25031,-6.10698 -19.69077,-9.3272 -5.44013,-2.72007 -11.69602,-4.52615 -17.61805,-6.21816 -0.66432,-0.18978 -1.41724,0.2185 -2.07269,0 -4.58441,-1.52812 -8.7897,-5.69348 -13.47264,-7.25447 -3.69443,-1.23148 -12.81936,-4.52851 -15.54533,-7.25448 -0.54621,-0.54623 -0.49014,-1.52652 -1.03637,-2.07272 -1.85071,-1.85074 -8.06707,-2.88531 -9.3272,-4.14544 -0.24426,-0.24426 0.24429,-0.79208 0,-1.03635 -0.34544,-0.34544 -2.7636,-0.6909 -3.10907,-1.03634 -0.24426,-0.24429 0.24429,-0.79209 0,-1.03638 -0.24426,-0.24426 -0.72736,0.15449 -1.03634,0 -4.31308,-2.15651 1.10789,0.0716 -1.03635,-2.07269 -0.48855,-0.48855 -1.45476,0.30898 -2.07272,0 -1.64073,-0.82037 -2.61223,-3.1233 -4.14544,-4.14544 -2.10809,-1.40539 -4.11004,-2.74002 -6.21813,-4.14541 -2.38088,-1.58726 0.44439,-0.59198 -2.07269,-3.10907 -0.54621,-0.5462 -1.43,-0.60788 -2.07272,-1.03637 -2.38088,-1.58723 0.44439,-0.59195 -2.07272,-3.10907 -1.55454,-1.55453 -3.62725,-2.59087 -5.18179,-4.14541 -1.26923,-1.26926 -1.45457,-3.04244 -3.10906,-4.14541 -4.87455,-3.24972 -8.59015,-7.92234 -13.47261,-10.36357 -2.48727,-1.24362 -3.73089,-4.97451 -6.21814,-6.21813 -7.71998,-3.85998 -14.54795,-9.69862 -21.76348,-14.50899 -0.52189,-2.28324 -2.13199,-0.54782 -3.10907,-1.03634 -3.44345,-1.72175 -7.10398,-3.55201 -10.36354,-5.18179 -1.57467,-0.78732 -2.49743,-2.55974 -4.14544,-3.10906 -0.65545,-0.2185 -1.45473,0.30898 -2.0727,0 -0.30898,-0.15449 0.24427,-0.79209 0,-1.03638 -0.0879,-0.0878 -7.9812,-3.99057 -8.29085,-4.14541 -1.24362,-0.62182 -1.86544,-2.48724 -3.10906,-3.10906 -2.24618,-1.12308 -4.41955,-3.24612 -6.21813,-4.14542 -6.0792,-3.03961 -11.13028,-7.11967 -17.61805,-10.36357 -1.31091,-0.65545 -1.8896,-2.29608 -3.10907,-3.10906 -2.2338,-1.48921 -5.80017,-2.48497 -8.29085,-4.14542 -2.87822,-1.91881 -5.2691,-4.20362 -8.29085,-6.21813 -3.33396,-2.22266 -6.89361,-4.48318 -10.36357,-6.21816 -2.81699,-1.40848 -4.43749,-4.80962 -7.25448,-6.21813 -1.38076,-0.69038 -3.94298,-1.87026 -5.18179,-3.10906 -0.24426,-0.24427 0.24427,-0.79209 0,-1.03635 -0.24426,-0.24426 -0.72736,0.15449 -1.03634,0 -2.63964,-1.31982 -4.37883,-3.57587 -5.18179,-5.18179 -0.69403,-1.38805 -2.47234,-1.436 -3.10906,-2.07272 -0.51819,-0.51816 -0.51819,-1.55453 -1.03635,-2.07269 -0.5475,-0.5475 -4.63431,-2.56159 -5.18179,-3.10906 -0.24426,-0.24429 0.24427,-0.79209 0,-1.03638 -0.96803,-0.96803 -4.21375,-1.10466 -5.18178,-2.07269 -0.24426,-0.24429 0.24426,-0.79208 0,-1.03637 -0.34544,-0.34544 -2.7636,-0.69091 -3.10907,-1.03635 -0.24426,-0.24426 0.24427,-0.79208 0,-1.03635 -0.0561,-0.0562 -3.05289,-2.01656 -3.10906,-2.07272 -0.51819,-0.51818 -0.51819,-1.55453 -1.03635,-2.07271 -0.91482,-0.91481 -4.14544,-1.44942 -4.14544,-3.10907 -0.16455,-6.81666 -6.39572,-8.03905 -9.3272,-12.43627 -0.85696,-1.28544 -1.21575,-2.85999 -2.07271,-4.14543 -0.34545,-0.34545 -0.69091,-0.6909 -1.03636,-1.03635 -0.34545,0 -0.79208,0.24427 -1.03635,0 -0.43428,-0.43428 -0.72231,-2.48097 -1.03636,-3.10907 -1.60769,-3.21539 -3.57408,-6.11181 -5.18178,-9.3272 -0.30898,-0.61796 0.48854,-1.58417 0,-2.07271 -0.24427,-0.24427 -0.79208,0.24427 -1.03635,0 -0.47907,-0.47907 0.31286,-2.48335 0,-3.10907 -1.94306,-3.88612 -2.07272,-7.68348 -2.07272,-12.43627 0,-2.15399 -0.0711,-1.10748 -1.03635,-2.07271 -0.71146,-0.71146 -0.42272,-9.51811 0,-10.36356 1.4282,-2.85641 0.33183,-4.80909 1.03635,-6.21813 0.74814,-1.49628 1.32458,-2.64915 2.07272,-4.14543 0.31286,-0.62572 -0.47907,-2.62999 0,-3.10906 0.24427,-0.24428 0.79208,0.24427 1.03635,0 0.71805,-0.71805 0.31831,-4.46374 1.03636,-5.18178 0.24427,-0.24427 0.79208,0.24427 1.03635,0 0.48855,-0.48855 -0.30898,-1.45475 0,-2.07271 0.43697,-0.87394 1.63575,-1.19878 2.07271,-2.07272 0.31405,-0.62809 0.60208,-2.67479 1.03636,-3.10906 0.24427,-0.24428 0.79208,0.24427 1.03636,0 0.34545,-0.34546 0.6909,-2.76362 1.03635,-3.10907 0.51818,-0.51818 1.55454,-0.51818 2.07271,-1.03636 0.24428,-0.24427 -0.24427,-0.79208 0,-1.03635 0.24428,-0.24427 0.79209,0.24427 1.03636,0 0.24427,-0.24427 -0.15449,-0.72738 0,-1.03636 0.82249,-1.64497 3.46152,-2.42516 4.14542,-3.10907 0.63671,-0.6367 0.68467,-2.41504 2.07271,-3.10906 0.58746,-0.29373 4.95467,-2.88196 5.18178,-3.10907 0.24427,-0.24427 -0.24427,-0.79209 0,-1.03636 0.24427,-0.24427 0.79209,0.24427 1.03636,0 0.24427,-0.24427 -0.24427,-0.79208 0,-1.03635 0.34545,-0.34545 2.76361,-0.69091 3.10907,-1.03636 0.24427,-0.24427 -0.24428,-0.79208 0,-1.03635 0.0499,-0.0499 5.48807,-2.74404 6.21813,-3.10907 0.62573,-0.31286 2.63,0.47907 3.10907,0 0.24427,-0.24427 -0.24427,-0.79209 0,-1.03636 0.24427,-0.24427 0.79208,0.24427 1.03635,0 0.20407,-0.20406 2.07272,-3.54558 2.07272,-1.03635"
       id="path12" />
    <path
       style="fill:none;stroke:#000000;stroke-width:4.99999;stroke-dasharray:none;stroke-opacity:1"
       d="m 392.77886,249.76175 c -1.38181,0 -4.14544,-1.38181 -4.14544,0 0,1.38181 5.38136,0.61796 4.14544,0 -2.54793,-1.27396 -5.56233,-1.25415 -8.29085,-2.07271 -3.03122,-0.90937 -5.61507,-2.80753 -8.29085,-4.14543 -1.00335,-0.50168 -3.24779,-0.43793 -4.14544,-1.03635 -0.81298,-0.54199 -1.25971,-1.53072 -2.07269,-2.07271 -1.60819,-1.07213 -0.67429,1.76049 -2.07272,-1.03636 -0.15449,-0.30898 0.24426,-0.79208 0,-1.03636 -0.44884,-0.44883 -3.47655,-1.6268 -4.14541,-2.07271 -0.81299,-0.54199 -1.1988,-1.63574 -2.07272,-2.07271 -0.6281,-0.31405 -2.67478,-0.60208 -3.10907,-1.03635 -0.24426,-0.24427 0.24426,-0.79209 0,-1.03636 -0.43429,-0.43428 -2.48097,-0.72231 -3.10906,-1.03635 -0.87395,-0.43697 -1.19878,-1.63575 -2.07272,-2.07272 -1.85746,-0.92873 -4.36065,-2.18033 -6.21814,-3.10906 -1.99149,-0.99575 -3.19029,-3.14968 -5.18178,-4.14543 -0.61796,-0.30898 -1.45473,0.30898 -2.07269,0 -2.97199,-1.48598 -6.35524,-1.62308 -9.32723,-3.10907 -1.10543,-0.55272 -3.03995,0.55273 -4.14541,0 -4.36594,-2.18297 -11.45021,-1.03635 -16.5817,-1.03635 -3.9406,0 -8.11581,-0.6057 -11.39992,1.03635 -0.62571,0.31287 -2.62999,-0.47907 -3.10907,0 -0.24426,0.24428 0.24429,0.79209 0,1.03636 -0.51816,0.51818 -2.59088,-0.51818 -3.10906,0 -0.24427,0.24427 0.24429,0.79208 0,1.03636 -0.96803,0.96803 -4.21373,1.10467 -5.18176,2.07271 -0.24429,0.24427 0.24426,0.79208 0,1.03635 -0.18412,0.18412 -2.37321,1.33683 -3.10907,2.07272 -2.05308,-0.10346 -0.49016,1.5265 -1.03637,2.07271 -1.26225,1.26226 -2.31542,0.48545 -3.10907,2.07271 -0.63986,1.27972 -1.43285,2.8657 -2.07272,4.14542 -0.62179,1.24363 -2.48724,1.86544 -3.10906,3.10907 -0.53136,1.06274 -0.50498,3.08268 -1.03635,4.14542 -0.34544,0.69091 -0.49014,1.52651 -1.03634,2.07271 -0.24429,0.24428 -0.88189,-0.30898 -1.03638,0 -0.30898,0.61797 0.2185,1.41727 0,2.07272 -0.35782,1.07347 -1.55863,2.08093 -2.07269,3.10906 -0.30898,0.61797 0.30898,1.45475 0,2.07271 -0.60362,1.20723 -1.4691,1.90185 -2.07272,3.10907 -0.43143,0.86286 0.65736,3.48805 0,4.14543 -0.24426,0.24427 -0.79208,-0.24428 -1.03635,0 -0.73281,0.73281 0,6.10335 0,7.25448"
       id="path13" />
    <path
       style="fill:none;stroke:#000000;stroke-width:4.99999;stroke-dasharray:none;stroke-opacity:1"
       d="m 410.39689,145.08981 c 1.38181,-0.6909 4.83634,-0.6909 4.14543,-2.07271 -0.6909,-1.38181 -5.52722,2.76362 -4.14543,2.07271 3.18116,-1.59058 6.14605,-3.5912 9.32722,-5.18178 0.61796,-0.30898 1.45473,0.30899 2.07269,0 2.83472,-1.41734 5.45616,-2.72807 8.29085,-4.14542 1.39005,-0.69502 3.8752,-0.38307 5.18179,-1.03636 3.4063,-1.70314 7.11004,-2.51866 10.36354,-4.14542 0.8291,-0.41454 2.28,0.41454 3.1091,0 1.7821,-0.89105 3.39965,-1.18166 5.18175,-2.07271 1.10546,-0.55272 3.03999,0.55272 4.14544,0 4.23056,-2.11529 9.38782,-2.10302 13.47261,-4.14542 0.8291,-0.41455 2.28,0.41454 3.10907,0 0.43699,-0.21849 0.5729,-0.88187 1.03637,-1.03636 1.86545,-0.62181 4.35269,0.62181 6.21813,0 0.46348,-0.15449 0.57288,-0.88186 1.03635,-1.03635 0.98317,-0.32773 2.18213,0.46347 3.10907,0 0.43696,-0.21849 0.57287,-0.88187 1.03637,-1.03636 1.86542,-0.62181 4.35269,0.62181 6.21813,0 0.46347,-0.15449 0.59939,-0.81787 1.03635,-1.03636 3.93094,-1.96546 9.27468,-2.05958 13.47263,-3.10906 1.80475,-0.4512 3.37701,-1.62152 5.18176,-2.07272 2.07272,-0.51817 0,1.03636 3.10907,0 0.46347,-0.15449 0.69091,-0.6909 1.03637,-1.03635 0.69091,-0.34545 1.33991,-0.79209 2.0727,-1.03636 1.94865,-0.64955 4.34051,-0.41047 6.21815,-1.03635 2.534,-0.84467 4.75113,-2.27462 7.25448,-3.10907 5.75448,-1.91816 11.88466,-3.27065 17.61805,-5.18178 0.65545,-0.21848 1.45476,0.30898 2.07272,0 3.79071,-1.89536 7.45109,-4.243719 11.39992,-6.218135 3.2672,-1.633603 7.01283,-2.271392 10.36354,-3.109066 3.7405,-0.935124 7.28353,-3.641762 10.36357,-5.18178 1.44539,-0.722701 3.73637,-0.313653 5.18176,-1.036357 1.83976,-0.919874 3.34203,-2.189191 5.18179,-3.109066 0.61796,-0.308983 1.45476,0.308981 2.07272,0 1.54561,-0.772813 2.5645,-2.318612 4.14541,-3.109068 0.30898,-0.15449 0.6909,0 1.03637,0 1.03635,-0.345451 2.20012,-0.430393 3.10907,-1.036355 0.28741,-0.191621 0,-0.690903 0,-1.036357 0.6909,-0.34545 1.32331,-0.849008 2.07269,-1.036354 3.58963,-0.897406 0.62243,1.312309 4.14544,-1.036357 1.60073,-1.06716 2.50637,-2.289546 4.14541,-3.109066 0.61796,-0.308983 1.45476,0.30898 2.07272,0 1.76221,-0.881102 3.50073,-2.268548 5.18179,-3.109069 1.16292,-0.581461 2.94494,-0.436123 4.14541,-1.036354 1.99149,-0.995749 3.19029,-3.149677 5.18178,-4.145426 0.30898,-0.15449 0.79209,0.244272 1.03635,0 0.34547,-0.34545 0.69091,-2.763615 1.03637,-3.109066 2.14424,-2.144257 -0.0838,3.276709 2.0727,-1.036357 0.87018,-1.740347 0.18102,-4.507486 1.03637,-6.218134 0.51898,-1.03799 2.31312,-4.941351 1.03635,-6.218135 -0.24427,-0.244271 -0.79209,0.244272 -1.03635,0 -0.48855,-0.488542 0.48853,-1.584169 0,-2.072711 -0.24429,-0.244271 -0.79208,0.244271 -1.03637,0 -0.24427,-0.244271 0.15449,-0.727374 0,-1.036355 -0.43696,-0.873932 -1.63574,-1.198782 -2.0727,-2.072714 -0.15449,-0.30898 0.24427,-0.792083 0,-1.036354 -0.24429,-0.244271 -0.79208,0.244271 -1.03637,0 -0.70845,-0.708448 -2.69819,-5.807271 -3.10907,-6.218135 -0.24426,-0.244271 -0.79208,0.244272 -1.03634,0 -0.24427,-0.244271 0.15449,-0.727374 0,-1.036357 -2.15654,-4.313063 0.0715,1.107903 -2.07272,-1.036354 -1.26228,-1.262264 -0.48546,-2.315438 -2.07272,-3.109069 -1.53532,-0.767662 -3.25546,-2.21911 -5.18176,-4.145423 -1.77186,-1.771846 -2.43477,-4.507467 -4.14544,-6.218134 -0.5462,-0.546207 -1.52649,-0.490148 -2.07269,-1.036356 -1.26228,-1.262264 -0.48546,-2.315438 -2.07272,-3.109067 -5.16665,-2.583326 -10.49761,-5.348981 -16.5817,-6.218135 -1.7099,-0.244272 -3.48806,0.338743 -5.18179,0 -10.33777,-2.0675553 -21.49316,-1.036356 -32.127,-1.036356 -1.71874,0 -7.90094,-0.6156569 -10.36357,0 -2.44941,0.612353 -4.70514,1.435371 -7.25448,2.072712 -1.00542,0.251353 -2.10368,-0.251354 -3.1091,0 -2.16273,0.540688 -5.29801,3.109067 -6.21813,3.109067"
       id="path14" />
    <path
       style="fill:none;stroke:#000000;stroke-width:4.99999;stroke-dasharray:none;stroke-opacity:1"
       d="m 614.559,70.472196 c 1.38181,0 4.14541,1.381808 4.14541,0 0,-1.381808 -5.52723,0 -4.14541,0 4.14541,0 8.50357,1.310897 12.43626,0 0.46347,-0.154493 0.59939,-0.817875 1.03635,-1.036357 1.26611,-0.633053 5.10947,0.221737 6.21815,0 0.75745,-0.15149 1.33988,-0.792083 2.0727,-1.036357 1.08881,-0.362932 2.98812,0 4.14544,0 9.35974,0 14.87426,4.328065 22.7998,8.290848 1.645,0.822487 2.42517,3.46152 3.10907,4.145423 0.24429,0.244272 0.79211,-0.244271 1.03637,0 0.76581,0.765802 3.51796,7.035917 4.14541,8.290846 0.79047,1.58091 2.33628,2.599796 3.10907,4.145423 0.30898,0.617964 -0.30898,1.454748 0,2.072712 0.66352,1.327007 1.61211,2.763602 2.07272,4.145423 0.32771,0.983173 -0.46347,2.182123 0,3.109073 0.21849,0.43696 0.88186,0.57288 1.03635,1.03635 0.62182,1.86544 -0.6218,4.35269 0,6.21813 0.15449,0.46348 0.88188,0.57289 1.03637,1.03636 0.89038,2.67117 0,7.49694 0,10.36356 0,0.6909 0.48853,1.58417 0,2.07271 -0.24429,0.24427 -0.79208,-0.24427 -1.03637,0 -0.48853,0.48854 0.30898,1.45475 0,2.07271 -0.99574,1.9915 -3.14968,3.19029 -4.14542,5.18178 -1.39382,2.78767 -2.82421,5.64841 -4.14541,8.29085 -1.03637,2.07271 -4.14544,3.10907 -5.18178,5.18178 -0.15449,0.30898 0.24426,0.79208 0,1.03635 -0.24429,0.24427 -0.79209,-0.24427 -1.03638,0 -0.78007,0.78008 -2.54508,4.61779 -3.10906,5.18178 -0.24427,0.24427 -0.79209,-0.24427 -1.03635,0 -0.63669,0.63671 -0.68466,2.41504 -2.07272,3.10907 -0.30898,0.15449 -0.79208,-0.24427 -1.03635,0 -0.003,0.003 -2.17003,3.2064 -3.10906,4.14542"
       id="path15" />
    <path
       style="fill:none;stroke:#000000;stroke-width:4.99999;stroke-dasharray:none;stroke-opacity:1"
       d="m 179.28955,435.26943 c -4.06204,0 -5.74167,3.42832 -9.3272,4.14542 -1.69372,0.33875 -3.48806,-0.33874 -5.18178,0 -8.1665,1.6333 -16.69252,-0.32698 -24.87254,1.03636 -11.32657,1.88776 -39.32573,4.6915 -48.708721,0 -1.100636,-0.55032 -3.221596,-0.11253 -4.145423,-1.03636 -0.244271,-0.24427 0.244271,-0.79208 0,-1.03635 -0.244271,-0.24427 -0.792084,0.24427 -1.036356,0 -0.244271,-0.24427 0.154491,-0.72738 0,-1.03636 -0.436966,-0.87393 -1.635745,-1.19878 -2.072711,-2.07271 -0.308982,-0.61796 0.308981,-1.45475 0,-2.07271 -1.636277,-3.27256 -1.648266,-8.10338 0,-11.39992 0.463472,-0.92694 -0.327725,-2.12589 0,-3.10906 0.15449,-0.46348 0.881865,-0.57289 1.036355,-1.03636 0.947066,-2.8412 -0.618122,-2.90918 1.036356,-6.21813 1.316455,-2.63291 1.238628,1.06135 2.072712,-3.10907 0.203246,-1.01623 -0.203246,-2.09284 0,-3.10907 0.302981,-1.5149 1.498947,-2.71101 2.072711,-4.14542 2.328181,-5.82045 5.546913,-11.09383 8.290847,-16.58169 1.276247,-2.5525 -3.008266,0.93555 1.036355,-3.10907 0.546205,-0.54621 1.526505,-0.49015 2.072715,-1.03636 1.94338,-1.94338 3.61831,-4.90929 5.18178,-7.25449 3.30599,-4.95899 8.81358,-9.97834 13.47262,-13.47262 7.45449,-5.59087 -2.1871,1.15075 3.10907,-4.14543 1.76146,-1.76146 4.27292,-2.58925 6.21813,-4.14542 4.59395,-3.67516 8.88068,-7.72635 13.47263,-11.39991 0.0704,-0.0563 5.12858,-3.06657 5.18178,-3.10907 1.14446,-0.91557 2.07271,-2.07271 3.10906,-3.10907 0.69091,-0.6909 1.30974,-1.46233 2.07272,-2.07271 4.63878,-3.71102 9.87559,-6.65685 14.50898,-10.36356 3.60462,-2.8837 6.82116,-6.3752 10.36356,-9.3272 5.84243,-4.86869 12.56541,-8.90588 18.6544,-13.47262 7.96826,-5.9762 15.42982,-12.26855 23.83618,-17.61805 5.4882,-3.49249 10.96522,-7.08728 16.58169,-10.36356 8.38844,-4.89326 17.25683,-6.31429 23.83619,-14.50898 -7.58283,6.86619 -16.83514,11.43543 -24.87254,17.61805 -2.91067,2.23899 -5.35308,5.05116 -8.29084,7.25448 -2.2281,1.67108 -4.97283,2.54828 -7.25449,4.14544 -12.25994,8.58195 -23.90463,18.17045 -37.30881,24.87253 -4.60199,2.301 -7.88126,6.72436 -12.43627,9.32719 -9.27828,5.30188 -18.63575,10.97045 -26.94525,17.61805 -2.49647,1.99718 -5.89169,3.18249 -8.29085,5.18179 -4.16916,3.4743 -8.28657,6.80667 -12.43627,10.36357 -5.58888,2.37889 -1.43452,2.47086 -4.14542,5.18179 -0.54621,0.5462 -1.42999,0.60785 -2.07271,1.03634 -2.79019,1.86013 -4.46431,5.39435 -7.2545,7.25448 -2.84978,1.89987 -6.31091,4.28461 -8.29084,7.2545 -1.00684,1.51027 -0.647,2.15858 -2.072713,3.10907 -1.51026,1.00685 -2.15859,0.64699 -3.109066,2.07272 -1.499825,2.24973 -3.600657,3.07361 -5.18178,5.18176 -0.747326,0.99645 -1.19198,2.22835 -2.072712,3.10906 -0.546208,0.54621 -1.526503,0.49017 -2.072711,1.03638 -0.546209,0.5462 -0.490149,1.52648 -1.036357,2.07269 -0.546206,0.54623 -1.526503,0.49017 -2.072712,1.03637 -0.880731,0.88072 -1.191977,2.22832 -2.072711,3.10907 -1.127009,1.12699 -7.778727,6.48025 -9.327201,7.25448 -1.363106,0.68156 -2.645328,0.53633 -4.145425,1.03637 -1.073476,0.35782 -2.080927,1.55863 -3.109066,2.07269 -1.344681,0.67236 -2.745362,1.37269 -4.145423,2.07272 -0.829085,0.41455 -2.279984,-0.41455 -3.109069,0 -0.436964,0.2185 -0.572883,0.88186 -1.036354,1.03635 -0.819984,0.27334 -8.721344,0.60587 -9.327203,0 -0.659461,-0.65945 -1.411203,-2.82239 -2.072712,-4.14541 -0.86624,-1.73249 -2.502672,-3.36259 -3.109068,-5.18179 -0.327724,-0.98316 0.463473,-2.18212 0,-3.10906 -4.776058,-9.55212 -1.683568,-27.2074 0,-37.30879 0.170376,-1.02228 -0.284708,-2.1126 0,-3.1091 0.424421,-1.48545 1.584169,-2.67978 2.072711,-4.14541 0.327727,-0.98316 -0.46347,-2.18212 0,-3.10907 0.218485,-0.43696 0.817875,-0.59938 1.036357,-1.03634 0.308981,-0.61796 -0.488542,-1.58417 0,-2.07272 0.244272,-0.24426 0.792084,0.24426 1.036357,0 0.488543,-0.48855 -0.488545,-1.58417 0,-2.07272 0.244272,-0.24426 0.792084,0.24429 1.036355,0 0.518178,-0.51816 -0.518179,-2.59088 0,-3.10907 0.244271,-0.24426 0.792086,0.24427 1.036357,0 0.772454,-0.77245 0.547812,-2.13198 1.036354,-3.10906 20.975685,7.07352 -5.659337,-7.81329 -3.109068,-10.36356 0.05616,-0.0562 3.05291,-2.01656 3.109068,-2.07271 0.244271,-0.24428 -0.154491,-0.72738 0,-1.03636 0.500789,-1.00158 3.143844,-3.64463 4.145423,-4.14542 0.308981,-0.15449 0.792084,0.24427 1.036356,0 0.518178,-0.51818 0.518178,-1.55454 1.036355,-2.07272 0.244272,-0.24427 0.792085,0.24428 1.036356,0 0.244272,-0.24427 -0.154491,-0.72737 0,-1.03635 1.243627,-2.48726 4.974508,-3.73088 6.218135,-6.21814 0.154491,-0.30898 -0.244271,-0.79208 0,-1.03635 0.244271,-0.24427 0.727374,0.15449 1.036356,0 4.313064,-2.15653 -1.107902,0.0715 1.036355,-2.07271 0.518178,-0.51818 1.554534,-0.51818 2.072712,-1.03636 0.345452,-0.34545 0.690904,-2.76361 1.036356,-3.10907 0.244271,-0.24427 0.792084,0.24427 1.036356,0 0.04127,-0.0413 1.687157,-7.51973 2.072711,-8.29084 1.324978,-2.64996 1.842212,-5.75714 3.109068,-8.29085 0.967265,-1.93453 -0.967266,-5.31996 0,-7.25449 1.768479,-3.53696 2.084696,-12.38833 1.036355,-16.58169 -0.471333,-1.88533 -1.254042,-5.61715 -2.072711,-7.25449 -0.218483,-0.43697 -0.881865,-0.57289 -1.036356,-1.03636 -0.730622,-2.19187 -0.622772,-4.04322 -2.072712,-6.21813 -1.072689,-1.60904 -2.512463,-4.09314 -4.145423,-5.18178 -1.510261,-1.00684 -2.15859,-0.647 -3.109067,-2.07271 -0.42848,-0.64272 -0.490148,-1.52651 -1.036356,-2.07272 -2.045578,-2.04557 -5.099405,-3.02669 -7.25449,-5.18177 -1.905749,-1.90575 -4.382118,-3.34577 -6.218135,-5.18178 -0.880733,-0.88074 -1.191979,-2.22834 -2.072712,-3.10907 -0.473608,-0.47361 -10.573433,-7.87761 -11.399913,-8.29085 -0.308982,-0.15449 -0.792085,0.24427 -1.036356,0 -0.244271,-0.24427 0.244271,-0.79208 0,-1.03635 -0.86363,-0.86363 -4.318149,0.86363 -5.181779,0 -0.244271,-0.24427 0.244271,-0.79209 0,-1.03636 -0.625846,-0.62584 -5.235333,0 -6.218135,0"
       id="path16" />
    <path
       style="fill:none;stroke:#000000;stroke-width:4.99999;stroke-dasharray:none;stroke-opacity:1"
       d="m 47.672367,333.70656 c 0.149958,-3.39566 0.846656,-5.83872 2.072711,-8.29083 1.589569,-3.17915 5.299808,-5.35882 7.254492,-8.29085 3.066931,-4.60039 7.937654,-11.13501 12.436269,-14.50898 0.617963,-0.46347 1.526503,-0.49014 2.072711,-1.03635 7.039359,-9.38583 0.01376,-1.30577 5.18178,-5.18178 2.502292,-1.87672 2.10583,-2.63229 4.145423,-5.18179 2.694004,-3.36751 6.515876,-6.11425 9.327201,-9.3272 9.590402,-10.96047 15.515706,-19.41829 21.763476,-33.16339 7.32308,-16.11077 7.68986,-44.62473 5.18178,-62.18135 -0.40345,-2.82411 -2.32591,-5.54976 -3.10907,-8.29084 -1.14727,-4.01543 -1.32334,-5.58033 -2.07271,-9.3272 -0.30298,-1.51491 -1.69802,-2.64665 -2.07272,-4.14543 -1.18574,-4.74299 2.09332,1.07757 -1.03635,-5.18178 -0.70429,-1.40857 -2.40478,-2.73684 -3.10907,-4.14542 -0.48854,-0.97709 -0.54781,-2.13198 -1.03635,-3.10907 -1.15766,-2.31531 -2.65432,-1.07864 -4.14543,-2.07271 -0.642717,-0.42848 -0.49014,-1.5265 -1.036353,-2.07271 -0.327388,-0.32739 -5.541127,-4.77557 -6.218135,-5.18178 -0.936738,-0.56204 -2.256033,-0.35393 -3.109068,-1.03635 -0.972606,-0.77809 -1.294625,-2.13647 -2.072712,-3.10907 -4.10228,-5.12785 0.204759,1.24111 -5.181777,-4.14543 -0.880735,-0.88073 -1.19198,-2.22833 -2.072712,-3.10906 -1.565981,-1.56598 -6.398889,-5.74093 -8.290846,-7.25449 -7.435564,-5.94845 -17.032645,-8.1445 -25.908895,-10.36356 -1.806969,-0.45174 -3.374813,-1.62097 -5.18178,-2.07271 -3.554412,-0.88861 -7.237097,-1.54584 -10.363557,-3.10907 -0.625726,-0.31286 -2.629998,0.47907 -3.109069,0 -0.965231,-0.96523 0.08128,-1.03636 -2.072711,-1.03636"
       id="path17" />
    <path
       style="fill:none;stroke:#000000;stroke-width:4.99999;stroke-dasharray:none;stroke-opacity:1"
       d="m 286.0342,14.508981 c 2.44242,2.442403 2.22218,6.442325 4.14544,9.327202 0.54197,0.812985 1.53072,1.259728 2.07269,2.072712 1.34244,2.013662 2.5123,5.076973 4.14544,7.254491 1.1725,1.563336 3.27149,2.397559 4.14541,4.145423 0.30898,0.617964 -0.38325,1.497844 0,2.072712 0.69091,1.036354 2.22835,1.191977 3.10907,2.072711 10.37235,10.372337 20.56333,17.345264 34.19975,22.799827 2.62556,1.050234 4.62891,3.095191 7.25447,4.145423 2.74733,1.098928 5.54353,2.010143 8.29086,3.109068 1.43441,0.573765 2.63051,1.76973 4.14544,2.072712 14.71588,2.943177 33.07823,1.396 47.67236,-1.036355 1.07754,-0.179593 2.07269,-0.690903 3.10906,-1.036357 0.69091,-0.34545 1.31525,-0.884864 2.0727,-1.036354 1.01623,-0.203248 2.08682,0.170376 3.10909,0 4.00989,-0.668319 7.44127,-3.485655 11.39989,-4.145426 6.92645,-1.154403 9.49825,-2.605976 16.5817,-5.181777 1.33858,-0.486757 2.83626,-0.475284 4.14541,-1.036357 1.14486,-0.490643 1.96424,-1.582066 3.1091,-2.072712 2.31155,-0.990676 4.91942,-1.13869 7.25447,-2.072711 3.87795,-1.551173 0.31552,-0.675931 5.18179,-3.109066 4.54242,-2.27121 10.1541,-3.605215 14.50898,-6.218135 0.83783,-0.502708 1.22436,-1.587941 2.0727,-2.072714 4.17512,-2.385774 9.36847,-3.755631 13.47263,-6.218134 0.83786,-0.502706 1.29104,-1.486458 2.07272,-2.072712 2.42872,-1.821547 5.76194,-2.45949 8.29083,-4.145423 1.21949,-0.812982 1.93656,-2.229688 3.10909,-3.109065 2.35683,-1.767634 4.80367,-2.674938 7.25448,-4.145425 1.48111,-0.888668 2.92407,-1.88771 4.14541,-3.109067 2.51711,-2.517103 -0.30816,-1.521808 2.07272,-3.109068 1.28545,-0.85696 3.053,-0.980296 4.14544,-2.072711 0.5462,-0.546208 0.49014,-1.526504 1.03634,-2.072712 2.44272,-2.442714 6.58834,-2.81654 8.29086,-6.2181345 -3.10907,2.0727115 -6.17476,4.2120265 -9.32722,6.2181345 -2.2935,1.459497 -2.40947,0.884577 -5.18178,2.072712 -3.75845,1.610761 -7.94061,4.056068 -11.39992,6.218134 -7.34743,4.592149 -14.10238,10.383781 -21.76347,14.508981 -11.89202,6.403398 -23.83436,13.397426 -35.23609,20.727116 -1.45294,0.934029 -2.76362,2.072712 -4.14543,3.109067 -3.10907,2.072712 -6.14486,4.259775 -9.3272,6.218135 -8.00282,4.924815 -17.33172,8.760339 -25.90889,12.436269 -2.83999,1.217139 -5.35959,3.168338 -8.29085,4.145424 -1.67107,0.557024 -3.51071,0.479331 -5.18178,1.036355 -3.66407,1.221357 -6.75873,3.795305 -10.36356,5.181779 -4.38547,1.686719 -9.05686,2.539691 -13.47262,4.145423 -4.72091,1.716695 -9.67042,3.862171 -14.50898,5.181779 -9.39414,2.562035 -19.50954,3.597045 -29.01797,5.181775 -5.71396,0.95233 -11.90408,-0.95232 -17.61804,0 -36.37751,6.06292 -72.68472,6.75042 -107.78101,-8.290842 -8.18886,-3.509511 -16.5844,-7.256428 -23.83618,-12.436269 -1.19263,-0.85188 -1.88959,-2.296083 -3.10907,-3.109068 -0.90894,-0.605963 -2.27964,-0.325421 -3.10906,-1.036356 -1.67946,-1.439532 -2.58133,-3.617678 -4.14543,-5.181778 -1.71778,-1.71778 -4.99548,-2.736469 -6.21813,-5.181779 -0.30596,-0.611924 -1.72893,-3.801642 -2.07271,-4.145424 -0.24427,-0.244271 -0.79209,0.244272 -1.03636,0 -0.24427,-0.244271 0.15449,-0.727374 0,-1.036355 -0.0549,-0.109753 -16.08758,-15.133573 -16.58169,-15.545337 -1.54744,-1.289532 -3.60887,-1.850736 -5.18178,-3.109067 -3.99482,-3.195855 -7.4051,-7.167704 -11.39991,-10.363558 -8.87575,-7.1006 -15.82308,-15.823079 -23.83619,-23.836183 -0.98321,-0.983218 -4.692386,-4.6348132 -4.14542,-5.1817793 1.71243,-1.712431 2.07271,3.6689193 2.07271,5.1817793"
       id="path18" />
    <path
       style="fill:none;stroke:#000000;stroke-width:4.99999;stroke-dasharray:none;stroke-opacity:1"
       d="m 311.9431,450.81477 c 0,-1.51186 -12.54919,-12.54919 -14.50899,-14.50898 -2.80646,-2.80644 -5.68483,-6.46968 -9.32719,-8.29086 -1.23481,-0.61737 -4.24591,-1.1368 -5.18179,-2.07269 -0.24426,-0.24429 0.30898,-0.88188 0,-1.03637 -0.69667,-0.34833 -6.08978,-1.49035 -7.25448,-2.07269 -2.21707,-1.10856 -4.10821,-2.87949 -6.21813,-4.14544 -3.60717,-2.16429 -16.3858,-6.16916 -20.72713,-7.25448 -3.12688,-0.78174 -20.24109,-0.63968 -22.79982,0 -0.74939,0.18735 -1.31526,0.88487 -2.07272,1.03634 -1.69371,0.33875 -3.54315,-0.5462 -5.18178,0 -0.46347,0.1545 -0.57288,0.88189 -1.03635,1.03638 -1.3109,0.43696 -2.83453,-0.43699 -4.14542,0 -0.46348,0.15449 -0.5624,0.91786 -1.03636,1.03634 -1.34055,0.33515 -2.9095,-0.61796 -4.14542,0 -2.45469,1.22735 -5.45067,2.16234 -8.29085,3.10907 -0.65545,0.21849 -1.45475,-0.30898 -2.07271,0 -0.43697,0.21849 -0.57288,0.88186 -1.03636,1.03635 -1.99085,0.66362 -4.37199,0.11329 -6.21813,1.03637 -0.99089,0.49543 -4.64402,1.53495 -5.18178,2.07269 -0.24427,0.24429 0.24427,0.79209 0,1.03638 -0.51818,0.51816 -2.59089,-0.51819 -3.10907,0 -0.24427,0.24426 0.24427,0.79208 0,1.03634 -1.01542,1.01542 -5.74943,2.35654 -7.25449,3.10907 -1.51144,0.75573 -1.65789,1.65788 -2.07271,2.07272 -0.24427,0.24426 -0.72738,-0.15449 -1.03636,0 -3.18116,1.59057 -6.2774,3.3519 -9.3272,5.18178 -1.32475,0.79484 3.45452,-3.45453 4.14542,-2.07272 0.69091,1.38182 -2.76361,1.38182 -4.14542,2.07272 -0.6909,-3.10907 -2.52313,-6.17431 -2.07271,-9.32722 0.22455,-1.57188 8.6485,-10.72121 10.36355,-12.43627 12.18025,-12.18025 24.58734,-18.87569 39.38152,-26.94525 5.69449,-3.10608 5.07637,-3.58332 11.39992,-6.21813 5.3294,-2.22059 11.27143,-3.05768 16.58169,-5.18178 8.24396,-3.29758 16.23492,-6.92786 24.87254,-9.3272 4.11712,-1.14365 8.35777,-1.83454 12.43627,-3.10907 1.47458,-0.46081 2.71935,-1.47852 4.14542,-2.07271 6.42883,-2.67868 12.55499,-4.20479 18.65441,-7.25449 13.16161,-6.58081 37.02377,-10.1401 51.81779,-8.29085 6.07447,0.75931 12.01556,3.08085 17.61804,5.18178 4.6919,1.75946 9.87621,2.08641 14.50898,4.14542 2.11764,0.94117 4.0197,2.37626 6.21814,3.10907 0.98317,0.32772 2.08681,-0.17038 3.10907,0 4.43145,0.73858 11.72943,3.27382 15.54533,5.18178 0.87394,0.43697 1.23487,1.57 2.07272,2.07271 5.02559,3.01536 11.48137,4.0668 16.58169,7.25449 11.94917,7.46824 22.33991,16.96599 34.19974,24.87254 12.64746,8.43164 26.59185,17.08794 35.2361,30.05432 0.60596,0.90894 0.47431,2.17233 1.03635,3.10907 0.50271,0.83784 1.48646,1.29104 2.07271,2.07271 4.23073,5.64097 6.21814,14.97715 6.21814,21.76347"
       id="path19" />
    <path
       style="fill:none;stroke:#000000;stroke-width:4.99999;stroke-dasharray:none;stroke-opacity:1"
       d="m 698.5038,355.47005 c -2.7723,0 -2.42308,-2.18951 -5.18176,-3.10907 -0.65545,-0.21849 -1.41726,0.21847 -2.07272,0 -0.92694,-0.30898 -1.14578,-1.76374 -2.07272,-2.07272 -0.65545,-0.21849 -1.41726,0.21849 -2.07269,0 -1.18163,-0.39388 -1.92746,-1.67883 -3.10909,-2.07272 -3.70293,-1.23431 4.26929,4.01249 -4.14541,-1.03635 -0.83783,-0.5027 -1.29104,-1.48645 -2.07272,-2.07272 -2.44806,-1.83604 -8.23794,-4.23703 -10.36355,-5.18175 -1.99652,-0.88736 -4.26397,-1.09564 -6.21813,-2.07272 -16.52228,-8.26114 -38.02711,-18.51592 -49.74508,-33.16338 -2.41856,-3.02321 -5.96913,-5.19523 -8.29085,-8.29085 -2.59959,-3.46615 -4.05802,-7.79973 -6.21813,-11.39992 -0.50271,-0.83786 -1.57001,-1.23486 -2.07272,-2.07272 -2.43843,-4.06405 -5.10371,-11.0876 -6.21814,-15.54533 -0.25135,-1.00542 0.25136,-2.10365 0,-3.10907 -0.45119,-1.80477 -1.56165,-3.39304 -2.07271,-5.18178 -1.14393,-4.00373 -0.0515,-8.49708 -1.03635,-12.43627 -1.67172,-6.68685 -2.21451,-16.15627 0,-22.79983 0.72546,-2.17634 -0.72546,-5.07814 0,-7.25449 0.94464,-2.8339 2.16442,-5.45694 3.10906,-8.29084 0.54756,-1.6427 0.27692,-3.66289 1.03635,-5.18178 0.43699,-0.87394 1.63576,-1.19878 2.07272,-2.07271 0.30898,-0.61797 -0.21847,-1.41727 0,-2.07272 0.27408,-0.82226 4.72146,-9.67309 5.18179,-10.36355 1.89145,-2.83718 4.16845,-4.5216 6.21813,-7.2545 0.92694,-1.23592 0.98031,-3.053 2.07272,-4.14542 0.5462,-0.5462 1.52648,-0.49015 2.07269,-1.03635 0.36986,-0.36985 4.01955,-6.09226 4.14544,-6.21814 0.51819,-0.51818 1.55453,-0.51818 2.07272,-1.03635 0.24426,-0.24428 -0.24429,-0.79209 0,-1.03636 0.0847,-0.0847 6.13343,-4.06072 6.21813,-4.14542 0.0561,-0.0562 2.01659,-3.05287 2.07269,-3.10907 0.24429,-0.24427 0.7274,0.15449 1.03638,0 0.87392,-0.43696 1.19877,-1.63575 2.07269,-2.07271 1.23481,-0.6174 4.2459,-1.13682 5.18178,-2.07271 0.24427,-0.24427 0,-0.69091 0,-1.03636 0.34547,-0.34545 0.69091,-0.6909 1.03638,-1.03635 2.04848,-1.36566 2.53822,-0.23277 4.14541,-1.03636 0.87392,-0.43697 1.19877,-1.63575 2.07272,-2.07271 2.16712,-1.08357 4.84386,-1.26917 7.25448,-2.07271 3.17285,-1.05762 4.79197,-3.70349 9.3272,-2.07272 -2.49045,7.06107 -8.29796,11.41413 -11.39992,17.61805 -0.46348,0.92694 0.32772,2.12589 0,3.10907 -0.15449,0.46347 -0.81788,0.59939 -1.03636,1.03635 -0.78391,1.56782 -0.60815,4.50533 -1.03635,6.21814 -0.3747,1.49878 -1.6483,2.65995 -2.07272,4.14542 -0.48391,1.69369 -0.47933,3.51071 -1.03635,5.18178 -0.15449,0.46347 -0.88187,0.57288 -1.03636,1.03636 -1.00838,3.02514 -2.19523,11.03236 -1.03635,14.50898 2.50225,7.50675 -0.29879,-1.63393 2.07271,3.10906 1.08089,2.16179 2.02817,5.09271 3.10907,7.25449 0.43696,0.87394 1.63574,1.19878 2.07271,2.07272 0.31404,0.62809 0.60207,2.67479 1.03635,3.10906 0.24427,0.24427 0.72738,-0.15449 1.03636,0 1.38805,0.69403 1.436,2.47236 2.07271,3.10907 1.72894,1.72894 3.44992,2.24314 5.18178,3.10907 1.1846,0.5923 4.27386,2.20114 5.18178,3.10907 1.29127,1.29127 2.11435,3.4684 4.14542,4.14542 0.65545,0.21848 1.41726,-0.21848 2.07271,0 1.36994,0.45664 2.82442,2.44856 4.14543,3.10907 0.61796,0.30898 1.58416,-0.48855 2.07271,0 0.24427,0.24427 -0.24427,0.79208 0,1.03635 0.48854,0.48854 1.41726,-0.21848 2.07271,0 0.73281,0.24427 1.3399,0.79209 2.07271,1.03636 1.63862,0.5462 3.48806,-0.33875 5.18178,0 0.47906,0.0958 0.57288,0.88186 1.03636,1.03635 2.81699,0.939 10.45133,2.16049 12.43626,4.14543"
       id="path20" />
    <text
       xml:space="preserve"
       style="font-size:25.40000017px;writing-mode:lr-tb;direction:ltr;fill:none;stroke:#000000;stroke-width:4.99999;stroke-dasharray:none;stroke-opacity:1"
       x="408.32419"
       y="241.47092"
       id="text21"><tspan
         sodipodi:role="line"
         id="tspan21"
         style="stroke-width:5;font-size:25.40000017px"
         x="408.32419"
         y="241.47092">2008</tspan></text>
    <text
       xml:space="preserve"
       style="font-size:25.4px;writing-mode:lr-tb;direction:ltr;fill:none;stroke:#000000;stroke-width:4.99999;stroke-dasharray:none;stroke-opacity:1"
       x="109.85371"
       y="381.37897"
       id="text22"><tspan
         sodipodi:role="line"
         id="tspan22"
         style="stroke-width:5"
         x="109.85371"
         y="381.37897">1987</tspan></text>
    <text
       xml:space="preserve"
       style="font-size:25.4px;writing-mode:lr-tb;direction:ltr;fill:none;stroke:#000000;stroke-width:4.99999;stroke-dasharray:none;stroke-opacity:1"
       x="639.43152"
       y="58.035927"
       id="text23"><tspan
         sodipodi:role="line"
         id="tspan23"
         style="stroke-width:5"
         x="639.43152"
         y="58.035927">1977</tspan></text>
    <text
       xml:space="preserve"
       style="font-size:25.4px;writing-mode:lr-tb;direction:ltr;fill:none;stroke:#000000;stroke-width:4.99999;stroke-dasharray:none;stroke-opacity:1"
       x="508.85071"
       y="45.599655"
       id="text24"><tspan
         sodipodi:role="line"
         id="tspan24"
         style="stroke-width:5"
         x="508.85071"
         y="45.599655">1944</tspan></text>
    <text
       xml:space="preserve"
       style="font-size:25.4px;writing-mode:lr-tb;direction:ltr;fill:none;stroke:#000000;stroke-width:4.99999;stroke-dasharray:none;stroke-opacity:1"
       x="585.54102"
       y="139.90804"
       id="text25"><tspan
         sodipodi:role="line"
         id="tspan25"
         style="stroke-width:5"
         x="585.54102"
         y="139.90804">1936</tspan></text>
    <text
       xml:space="preserve"
       style="font-size:25.4px;writing-mode:lr-tb;direction:ltr;fill:none;stroke:#000000;stroke-width:4.99999;stroke-dasharray:none;stroke-opacity:1"
       x="76.690331"
       y="309.87036"
       id="text26"><tspan
         sodipodi:role="line"
         id="tspan26"
         style="stroke-width:5"
         x="76.690331"
         y="309.87036">1971</tspan></text>
    <text
       xml:space="preserve"
       style="font-size:25.4px;writing-mode:lr-tb;direction:ltr;fill:none;stroke:#000000;stroke-width:4.99999;stroke-dasharray:none;stroke-opacity:1"
       x="167.88965"
       y="449.77844"
       id="text27"><tspan
         sodipodi:role="line"
         id="tspan27"
         style="stroke-width:5"
         x="167.88965"
         y="449.77844">1965</tspan></text>
  </g>
</svg>
